#!OML:ASF X:\für Bonn\!DataBase\2005_08_10_Bjorn_Final\c3d\bjorn.ASF
:FULLY-SPECIFIED
:DEGREES
242
root -12.7941 19.2841 -3.34618 1799.88 -28.5524 -358.801
lowerback 1.52342 2.78589 9.66132
upperback 10.2046 3.22281 0.112251
thorax 10.7268 2.39726 -5.0034
lowerneck -1.65099 10.6113 9.40415
upperneck 18.2815 16.6139 -15.7536
head 8.02581 7.52812 -5.3128
rclavicle -3.18055e-014 4.77083e-015
rhumerus -18.0775 -0.600299 -85.7675
rradius 26.2982
rwrist 10.5438
rhand 6.05222 -3.55632
rfingers 7.12502
rthumb 31.3731 -30.886
lclavicle -3.18055e-014 4.77083e-015
lhumerus -26.8037 -14.1099 93.2219
lradius 33.5662
lwrist -18.3832
lhand -20.3575 -7.89265
lfingers 7.12502
lthumb 5.99465 22.0025
rfemur -7.94857 -0.770027 17.4755
rtibia 26.9346
rfoot -13.6375 17.9842
rtoes -0.529941
lfemur -26.3912 9.89162 -22.8906
ltibia 26.9659
lfoot 0.757028 -15.0023
ltoes -13.502
243
root -12.719 19.2974 -3.37311 1799.93 -27.1659 -358.584
lowerback 1.35061 2.72611 9.6799
upperback 10.1439 3.12822 0.167641
thorax 10.7406 2.35025 -4.95627
lowerneck -1.80612 10.6045 9.41769
upperneck 18.3635 16.629 -15.7968
head 8.08874 7.52573 -5.31892
rclavicle -1.43125e-014 1.98785e-014
rhumerus -18.7431 -4.01002 -85.3604
rradius 24.211
rwrist 11.9698
rhand 5.66677 -3.51184
rfingers 7.12502
rthumb 31.0057 -30.9122
lclavicle -1.43125e-014 1.98785e-014
lhumerus -26.8432 -14.0521 92.9828
lradius 33.4014
lwrist -18.5991
lhand -19.6996 -7.97074
lfingers 7.12502
lthumb 6.62983 21.9055
rfemur -8.08349 -1.40983 17.0739
rtibia 26.8154
rfoot -13.7051 17.2966
rtoes -1.26288
lfemur -26.0496 9.66736 -22.7127
ltibia 27.5458
lfoot 0.0547519 -13.7209
ltoes -12.1634
244
root -12.6473 19.3088 -3.39632 1800.02 -25.7707 -358.441
lowerback 1.13842 2.6729 9.72775
upperback 10.0704 3.03532 0.247335
thorax 10.7649 2.30511 -4.89763
lowerneck -1.95047 10.5899 9.46991
upperneck 18.4823 16.6446 -15.8789
head 8.16921 7.5225 -5.34546
rclavicle -1.51076e-014 -4.77083e-015
rhumerus -19.5543 -7.51012 -84.7882
rradius 22.381
rwrist 13.3546
rhand 5.41775 -4.01335
rfingers 7.12502
rthumb 30.7683 -31.4587
lclavicle -1.51076e-014 -4.77083e-015
lhumerus -26.9037 -13.9183 92.7488
lradius 33.2427
lwrist -18.8499
lhand -19.0175 -8.04425
lfingers 7.12502
lthumb 7.28829 21.8102
rfemur -8.18524 -2.07106 16.742
rtibia 26.7033
rfoot -13.8147 16.6246
rtoes -1.95807
lfemur -25.6954 9.55105 -22.4677
ltibia 28.1397
lfoot -0.822116 -12.3465
ltoes -11.7133
245
root -12.5755 19.3187 -3.41817 1800.09 -24.2603 -358.254
lowerback 0.874772 2.57708 9.72711
upperback 10.0149 2.88241 0.303445
thorax 10.828 2.23004 -4.84159
lowerneck -2.0979 10.5749 9.49287
upperneck 18.5324 16.649 -15.9501
head 8.22223 7.51514 -5.36434
rclavicle -5.96354e-015 -3.18055e-014
rhumerus -20.3595 -11.2185 -84.0764
rradius 20.642
rwrist 14.9464
rhand 5.16247 -4.52663
rfingers 7.12502
rthumb 30.5249 -32.0176
lclavicle -5.96354e-015 -3.18055e-014
lhumerus -26.943 -13.7644 92.4452
lradius 33.1399
lwrist -19.0939
lhand -18.3647 -8.13781
lfingers 7.12502
lthumb 7.91839 21.6939
rfemur -8.26836 -2.83569 16.3564
rtibia 26.6184
rfoot -13.9634 15.9516
rtoes -2.77987
lfemur -25.344 9.45435 -22.2747
ltibia 28.7241
lfoot -1.6601 -10.9133
ltoes -11.3386
246
root -12.5058 19.3262 -3.43804 1800.19 -22.7113 -358.137
lowerback 0.585265 2.47157 9.73624
upperback 9.97 2.70826 0.40124
thorax 10.9142 2.1441 -4.74712
lowerneck -2.20517 10.5428 9.54194
upperneck 18.5247 16.6416 -16.1201
head 8.25836 7.50169 -5.42454
rclavicle 5.20816e-014 1.59028e-014
rhumerus -21.2823 -15.1596 -83.0844
rradius 19.0332
rwrist 17.0145
rhand 4.96324 -5.0354
rfingers 7.12502
rthumb 30.3349 -32.5615
lclavicle 5.20816e-014 1.59028e-014
lhumerus -26.9611 -13.6069 92.1587
lradius 33.0453
lwrist -19.3122
lhand -17.7522 -8.22081
lfingers 7.12502
lthumb 8.50952 21.5877
rfemur -8.31424 -3.6049 16.0458
rtibia 26.5501
rfoot -14.142 15.2445
rtoes -3.67154
lfemur -24.973 9.39494 -21.9989
ltibia 29.2991
lfoot -2.45811 -9.54805
ltoes -10.6962
247
root -12.4367 19.3326 -3.45713 1800.3 -21.1638 -357.999
lowerback 0.318967 2.35216 9.67372
upperback 9.86757 2.52563 0.495957
thorax 10.9125 2.04264 -4.62118
lowerneck -2.23072 10.5144 9.65118
upperneck 18.5518 16.6567 -16.3522
head 8.30577 7.50144 -5.5181
rclavicle 5.56597e-015 1.59028e-015
rhumerus -22.4897 -19.288 -81.7699
rradius 17.5937
rwrist 19.6192
rhand 4.88431 -5.2636
rfingers 7.12502
rthumb 30.2596 -32.8035
lclavicle 5.56597e-015 1.59028e-015
lhumerus -27.0934 -13.315 91.8695
lradius 33.001
lwrist -19.5599
lhand -17.2455 -8.28062
lfingers 7.12502
lthumb 8.99846 21.5075
rfemur -8.38684 -4.34833 15.7151
rtibia 26.5109
rfoot -14.3338 14.5185
rtoes -4.5115
lfemur -24.6427 9.5085 -21.7566
ltibia 29.8659
lfoot -3.24263 -8.36112
ltoes -10.1592
248
root -12.3689 19.337 -3.47547 1800.38 -19.6095 -357.862
lowerback 0.0829012 2.22061 9.57302
upperback 9.77632 2.33037 0.600706
thorax 10.9011 1.93109 -4.46619
lowerneck -2.25233 10.4794 9.7446
upperneck 18.5366 16.6633 -16.6108
head 8.33822 7.49621 -5.61953
rclavicle -1.19271e-015 -6.36111e-015
rhumerus -23.8783 -23.4048 -80.1668
rradius 16.3112
rwrist 22.3896
rhand 4.75257 -5.14118
rfingers 7.12502
rthumb 30.1339 -32.7041
lclavicle -1.19271e-015 -6.36111e-015
lhumerus -27.1776 -13.011 91.5627
lradius 32.9287
lwrist -19.7334
lhand -16.8241 -8.3538
lfingers 7.12502
lthumb 9.40508 21.4164
rfemur -8.41583 -5.06386 15.3881
rtibia 26.487
rfoot -14.5605 13.7602
rtoes -5.39336
lfemur -24.31 9.75025 -21.5012
ltibia 30.4287
lfoot -4.11942 -7.27609
ltoes -10.6974
